<svg xmlns="http://www.w3.org/2000/svg" version="1.1" xmlns:xlink="http://www.w3.org/1999/xlink" xmlns:svgjs="http://svgjs.dev/svgjs" width="2000" height="383" viewBox="0 0 2000 383"><g transform="matrix(1,0,0,1,-1.2121212121212466,-0.36474962658544996)"><svg viewBox="0 0 396 76" data-background-color="#ffffff" preserveAspectRatio="xMidYMid meet" height="383" width="2000" xmlns="http://www.w3.org/2000/svg" xmlns:xlink="http://www.w3.org/1999/xlink"><g id="tight-bounds" transform="matrix(1,0,0,1,0.2400000000000091,0.07237851598040379)"><svg viewBox="0 0 395.52 75.85524296803922" height="75.85524296803922" width="395.52"><g><svg viewBox="0 0 492.2328546455565 94.40342532865651" height="75.85524296803922" width="395.52"><g transform="matrix(1,0,0,1,0,13.04707253095036)"><svg viewBox="0 0 395.52 68.30928026675579" height="68.30928026675579" width="395.52"><g id="textblocktransform"><svg viewBox="0 0 395.52 68.30928026675579" height="68.30928026675579" width="395.52" id="textblock"><g><svg viewBox="0 0 395.52 44.5656338028169" height="44.5656338028169" width="395.52"><g transform="matrix(1,0,0,1,0,0)"><svg width="395.52" viewBox="0 -50 443.73 50" height="44.5656338028169" data-palette-color="#a1daaf"><path d="M37.5-6.25L6.25-6.25 6.25-12.5 0-12.5 0-18.75 12.5-18.75 12.5-12.5 31.25-12.5 31.25-50 43.75-50 43.75-12.5 37.5-12.5 37.5-6.25ZM87.5-6.25L56.25-6.25 56.25-12.5 50-12.5 50-31.25 56.25-31.25 56.25-37.5 87.5-37.5 87.5-31.25 93.75-31.25 93.75-12.5 87.5-12.5 87.5-6.25ZM62.5-31.25L62.5-12.5 81.25-12.5 81.25-31.25 62.5-31.25ZM137.5-6.25L106.25-6.25 106.25-12.5 100-12.5 100-50 112.5-50 112.5-37.5 137.5-37.5 137.5-31.25 143.75-31.25 143.75-12.5 137.5-12.5 137.5-6.25ZM112.5-31.25L112.5-12.5 131.25-12.5 131.25-31.25 112.5-31.25ZM187.49-6.25L156.24-6.25 156.24-12.5 149.99-12.5 149.99-50 162.49-50 162.49-12.5 181.24-12.5 181.24-50 193.74-50 193.74-12.5 187.49-12.5 187.49-6.25ZM231.24-6.25L218.74-6.25 218.74-31.25 206.24-31.25 206.24-37.5 218.74-37.5 218.74-50 231.24-50 231.24-37.5 243.74-37.5 243.74-31.25 231.24-31.25 231.24-6.25ZM287.49-6.25L256.24-6.25 256.24-12.5 249.99-12.5 249.99-31.25 256.24-31.25 256.24-37.5 287.49-37.5 287.49-31.25 293.74-31.25 293.74-12.5 287.49-12.5 287.49-6.25ZM262.49-31.25L262.49-12.5 281.24-12.5 281.24-31.25 262.49-31.25ZM312.49 0L299.99 0 299.99-37.5 337.49-37.5 337.49-31.25 343.74-31.25 343.74-18.75 337.49-18.75 337.49-12.5 312.49-12.5 312.49 0ZM312.49-31.25L312.49-18.75 331.24-18.75 331.24-31.25 312.49-31.25ZM381.23-43.75L368.73-43.75 368.73-50 381.23-50 381.23-43.75ZM393.73-6.25L356.23-6.25 356.23-12.5 368.73-12.5 368.73-31.25 362.48-31.25 362.48-37.5 381.23-37.5 381.23-12.5 393.73-12.5 393.73-6.25ZM443.73-6.25L406.23-6.25 406.23-12.5 399.98-12.5 399.98-18.75 406.23-18.75 406.23-25 431.23-25 431.23-31.25 406.23-31.25 406.23-37.5 437.48-37.5 437.48-31.25 443.73-31.25 443.73-6.25ZM412.48-18.75L412.48-12.5 431.23-12.5 431.23-18.75 412.48-18.75Z" opacity="1" transform="matrix(1,0,0,1,0,0)" fill="#000000" class="wordmark-text-0" data-fill-palette-color="primary" id="text-0"></path></svg></g></svg></g><g transform="matrix(1,0,0,1,163.310208,55.0865103684507)"><svg viewBox="0 0 232.209792 13.222769898305083" height="13.222769898305083" width="232.209792"><g transform="matrix(1,0,0,1,0,0)"><svg width="232.209792" viewBox="-0.39 -36.72 656.79 37.4" height="13.222769898305083" data-palette-color="#a1daaf"><path d="M-0.39-29.25L-0.39-29.25Q-0.39-29.69-0.34-30.55-0.29-31.42-0.29-31.74L-0.29-31.74Q-0.29-31.86-0.34-32.62-0.39-33.37-0.39-33.94L-0.39-33.94Q-0.39-36.52 0.1-36.52L0.1-36.52Q0.29-36.52 0.44-36.47L0.44-36.47Q5.54-36.47 15.56-36.6 25.59-36.72 30.57-36.72L30.57-36.72Q31.81-36.72 32.14-36.5 32.47-36.28 32.47-35.64L32.47-35.64 32.47-34.96Q32.47-33.69 32.5-31.21 32.52-28.74 32.52-27.44L32.52-27.44Q32.52-26.17 31.84-26.17L31.84-26.17Q30.47-26.17 27.76-26.22 25.05-26.27 23.68-26.27L23.68-26.27 23.68-0.1Q23.51 0.63 22.85 0.68L22.85 0.68Q22 0.68 20.36 0.66 18.73 0.63 17.87 0.63L17.87 0.63Q17.82 0.63 17.77 0.68L17.77 0.68Q16.7 0.68 14.76 0.66 12.82 0.63 11.87 0.63L11.87 0.63 10.4 0.63Q9.91 0.68 8.98 0.68L8.98 0.68 8.01-0.49Q8.01-4.2 8.25-11.52 8.5-18.85 8.5-22.56L8.5-22.56Q8.5-22.73 8.48-23.12 8.47-23.51 8.47-23.75 8.47-24 8.44-24.37 8.4-24.73 8.31-24.96 8.23-25.2 8.11-25.43 7.98-25.66 7.78-25.77 7.57-25.88 7.28-25.88L7.28-25.88 0.29-25.88Q-0.39-26.07-0.39-29.25ZM65.87-32.57L65.87-32.57 65.87-2.54Q65.87-2.03 65.83-1.72 65.79-1.42 65.62-1.15 65.45-0.88 65.13-0.88L65.13-0.88 52.68-0.88 52.68-1.42Q52.63-1.46 52.3-1.64 51.98-1.81 51.9-1.95L51.9-1.95 51.9-11.82Q51.9-12.35 51.82-12.43 51.73-12.5 51.12-12.5L51.12-12.5 49.46-12.5Q48.87-12.5 48.09-12.4L48.09-12.4 48.09-1.86Q48-1.42 47.71-1.29 47.43-1.17 46.87-1.17L46.87-1.17 45.75-1.17Q44.6-1.17 42.15-1.12 39.69-1.07 38.43-1.07L38.43-1.07 35.2-1.07Q34.15-1.07 34.15-2.25L34.15-2.25 34.3-33.01Q34.3-33.13 34.37-33.22 34.45-33.3 34.67-33.46 34.89-33.62 34.91-33.64L34.91-33.64 48.04-33.64 48.04-23.14 52.29-23.14 52.29-33.89 64.74-33.89Q65.33-33.89 65.6-33.62 65.87-33.35 65.87-32.57ZM70.45-1.81L70.45-31.54Q70.45-33.01 70.58-33.25L70.58-33.25Q70.8-33.59 71.28-33.59L71.28-33.59 71.87-33.59Q72.26-33.59 72.41-33.54L72.41-33.54 73.68-33.54Q76.14-33.54 81.14-33.67 86.13-33.79 88.62-33.79L88.62-33.79 95.11-33.79Q95.75-33.72 95.75-33.15L95.75-33.15 95.75-25Q95.72-24.85 95.66-24.74 95.6-24.63 95.56-24.6 95.53-24.56 95.33-24.43 95.14-24.29 95.06-24.22L95.06-24.22 83.74-24.22 83.74-21.19 84.81-21.19Q86.23-21.19 89.13-21.29 92.04-21.39 93.6-21.39L93.6-21.39Q94.28-21.39 94.53-21.12 94.77-20.85 94.77-20.36L94.77-20.36Q94.77-20.24 94.72-19.95 94.67-19.65 94.67-19.53L94.67-19.53 94.67-18.6Q94.67-18.51 94.7-18.2 94.72-17.9 94.72-17.68L94.72-17.68 94.72-16.99Q94.72-16.46 94.77-15.92 94.82-15.38 94.82-14.99L94.82-14.99 94.82-14.36Q94.7-14.06 94.62-13.96 94.55-13.87 94.38-13.87L94.38-13.87 94.38-13.92Q93.48-13.92 91.27-13.79 89.06-13.67 87.74-13.67L87.74-13.67 83.83-13.67 83.83-10.55Q84.03-10.55 84.42-10.52 84.81-10.5 85-10.5L85-10.5Q86.1-10.5 88.25-10.57 90.4-10.64 91.35-10.64L91.35-10.64 94.48-10.64Q95.75-10.64 96.09-10.35L96.09-10.35Q96.21-10.21 96.28-10.06L96.28-10.06 96.28-2.25Q96.28-1.73 96.09-1.46 95.89-1.2 95.36-1.17L95.36-1.17 71.19-1.17 70.45-1.81ZM121.33-33.89L127.58-33.89Q130.92-33.89 133.6-33.45 136.27-33.01 138.72-31.88 141.18-30.76 142.81-28.96 144.45-27.15 145.41-24.27 146.38-21.39 146.38-17.58L146.38-17.58Q146.38-14.79 145.72-12.39 145.06-9.99 143.91-8.25 142.76-6.52 141.29-5.16 139.81-3.81 138.08-2.95 136.34-2.1 134.61-1.64 132.88-1.17 131.14-1.07L131.14-1.07 114.39-1.07 114.39-33.5Q114.47-33.5 114.66-33.47 114.86-33.45 114.93-33.45L114.93-33.45Q115.98-33.45 118.12-33.67 120.25-33.89 121.33-33.89L121.33-33.89ZM126.7-8.69L127.87-8.69Q129.12-8.69 130.07-9.09 131.02-9.5 131.59-10.25 132.17-11.01 132.55-11.84 132.92-12.67 133.1-13.79 133.27-14.92 133.33-15.76 133.39-16.6 133.39-17.68L133.39-17.68 133.39-19.43Q133.36-19.6 133.24-21.09 133.12-22.58 132.7-23.63L132.7-23.63Q132.31-24.39 131.84-24.94 131.36-25.49 130.9-25.79 130.43-26.1 129.81-26.26 129.19-26.42 128.68-26.46 128.16-26.51 127.43-26.51L127.43-26.51 127.43-25.98 126.7-25.98 126.7-8.69ZM149.69-0.98L149.69-33.59 154.24-33.59Q156.34-33.59 160.95-33.69 165.56-33.79 167.86-33.79L167.86-33.79Q169.84-33.79 171.56-33.57 173.28-33.35 174.95-32.76 176.62-32.18 177.81-31.27 178.99-30.37 179.72-28.89 180.46-27.42 180.46-25.49L180.46-25.49Q180.46-22.83 179.21-20.95 177.97-19.07 175.38-17.77L175.38-17.77Q176.4-17.33 177.16-16.63 177.92-15.92 178.32-15.41 178.72-14.89 179.1-13.68 179.48-12.48 179.55-12.1 179.63-11.72 179.87-10.23L179.87-10.23Q179.94-9.89 179.97-9.72L179.97-9.72Q180.07-8.74 180.8-6.14 181.53-3.54 181.53-2.15L181.53-2.15Q181.53-1.27 180.99-1.27L180.99-1.27Q179.53-1.27 176.56-1.25 173.6-1.22 172.16-1.22L172.16-1.22Q171.57-1.27 170.4-1.27L170.4-1.27 168.74-1.27Q168.25-1.42 167.79-2.78 167.32-4.15 167.13-5.86L167.13-5.86 166.59-10.21Q166.44-10.74 166.36-10.97 166.27-11.21 166.05-11.54 165.83-11.87 165.45-11.99 165.08-12.11 164.49-12.11L164.49-12.11 163.37-12.11 163.37-2.34Q163.37-2.27 163.37-2.11 163.37-1.95 163.37-1.89 163.37-1.83 163.37-1.71 163.37-1.59 163.34-1.53 163.32-1.46 163.29-1.37 163.27-1.27 163.23-1.23 163.2-1.2 163.13-1.14 163.07-1.07 162.99-1.05 162.9-1.03 162.79-1 162.68-0.98 162.54-0.98L162.54-0.98 149.69-0.98ZM163.51-20.7L163.51-20.7Q163.56-20.65 163.66-20.5 163.76-20.34 163.85-20.24 163.95-20.14 164.05-20.12L164.05-20.12Q164.78-20.12 165.51-20.28 166.25-20.43 167.02-20.8 167.79-21.17 168.26-21.92 168.74-22.68 168.74-23.73L168.74-23.73Q168.74-26.27 163.85-26.27L163.85-26.27Q163.37-26.15 163.37-25.88L163.37-25.88 163.37-24.95Q163.37-24.24 163.44-22.83 163.51-21.41 163.51-20.7ZM183.73-1.81L183.73-31.54Q183.73-33.01 183.85-33.25L183.85-33.25Q184.07-33.59 184.56-33.59L184.56-33.59 185.14-33.59Q185.53-33.59 185.68-33.54L185.68-33.54 186.95-33.54Q189.41-33.54 194.41-33.67 199.4-33.79 201.89-33.79L201.89-33.79 208.38-33.79Q209.02-33.72 209.02-33.15L209.02-33.15 209.02-25Q208.99-24.85 208.93-24.74 208.87-24.63 208.84-24.6 208.8-24.56 208.6-24.43 208.41-24.29 208.33-24.22L208.33-24.22 197.01-24.22 197.01-21.19 198.08-21.19Q199.5-21.19 202.4-21.29 205.31-21.39 206.87-21.39L206.87-21.39Q207.55-21.39 207.8-21.12 208.04-20.85 208.04-20.36L208.04-20.36Q208.04-20.24 207.99-19.95 207.94-19.65 207.94-19.53L207.94-19.53 207.94-18.6Q207.94-18.51 207.97-18.2 207.99-17.9 207.99-17.68L207.99-17.68 207.99-16.99Q207.99-16.46 208.04-15.92 208.09-15.38 208.09-14.99L208.09-14.99 208.09-14.36Q207.97-14.06 207.9-13.96 207.82-13.87 207.65-13.87L207.65-13.87 207.65-13.92Q206.75-13.92 204.54-13.79 202.33-13.67 201.01-13.67L201.01-13.67 197.1-13.67 197.1-10.55Q197.3-10.55 197.69-10.52 198.08-10.5 198.28-10.5L198.28-10.5Q199.37-10.5 201.52-10.57 203.67-10.64 204.62-10.64L204.62-10.64 207.75-10.64Q209.02-10.64 209.36-10.35L209.36-10.35Q209.48-10.21 209.56-10.06L209.56-10.06 209.56-2.25Q209.56-1.73 209.36-1.46 209.16-1.2 208.63-1.17L208.63-1.17 184.46-1.17 183.73-1.81ZM231.13-6.05L223.62-6.05Q223.44-5.49 223.29-4.58 223.13-3.66 222.99-3.14 222.86-2.61 222.54-2.04 222.22-1.46 221.58-1.2 220.93-0.93 219.9-0.93L219.9-0.93 209.36-0.93 209.36-1.76Q210.65-5.64 213.13-13.67 215.61-21.7 216.97-25.83L216.97-25.83 216.97-25.78Q217.8-28.15 219.42-33.2L219.42-33.2Q219.44-33.25 219.49-33.33L219.49-33.33Q219.71-33.69 219.9-33.89L219.9-33.89 233.09-33.79Q236.46-33.79 236.8-33.2L236.8-33.2 236.8-32.57Q236.85-32.35 237.34-31.45L237.34-31.45Q239.7-24.19 240.8-20.9L240.8-20.9 240.8-20.61Q240.9-19.9 241.24-18.99 241.58-18.09 242.06-17.05 242.54-16.02 242.73-15.43L242.73-15.43 243.71-11.91Q244.56-9.08 246.22-4.35L246.22-4.35 246.22-4.39 246.22-3.91Q246.3-3.56 246.59-2.98 246.88-2.39 246.96-2.15L246.96-2.15Q246.96-1.46 246.67-1.27 246.39-1.07 245.59-1.07L245.59-1.07 234.26-1.07Q233.84-1.12 233.72-1.15 233.6-1.17 233.34-1.25 233.09-1.32 232.98-1.44 232.87-1.56 232.84-1.76L232.84-1.76 231.92-5.47Q231.82-5.93 231.72-5.99 231.62-6.05 231.13-6.05L231.13-6.05ZM224.79-14.65L224.79-14.75 224.79-14.65ZM230.16-17.68L230.16-17.68Q230.01-18.36 229.73-19.89 229.45-21.41 229.18-22.55 228.91-23.68 228.6-24.66L228.6-24.66 228.6-25.83Q228.4-26.34 227.91-26.56L227.91-26.56 227.91-26.51Q227.33-26.39 226.74-23.24L226.74-23.24 226.74-22.07Q226.69-21.9 226.52-21.75 226.35-21.61 226.35-21.58L226.35-21.58Q225.54-18.02 225.03-15.82L225.03-15.82Q225.03-15.58 224.91-14.97 224.79-14.36 224.79-14.26L224.79-14.26 230.84-14.26Q230.84-14.89 230.4-16.55L230.4-16.55 230.4-17.09Q230.38-17.16 230.27-17.37 230.16-17.58 230.16-17.68ZM263.85-33.5L266.34-33.5Q266.51-33.54 266.89-33.58 267.27-33.62 267.36-33.64L267.36-33.64 270.27-18.77 274.08-33.69 291.24-33.69Q291.92-33.69 291.92-30.81L291.92-30.81 291.92-2.05Q291.87-1.66 291.7-1.42 291.53-1.17 291.2-1.09 290.87-1 290.69-0.99 290.51-0.98 290.07-0.98L290.07-0.98Q288.53-0.98 285.39-0.93 282.26-0.88 280.69-0.88L280.69-0.88Q279.47-1.64 279.47-6.49L279.47-6.49Q279.47-7.71 279.52-9.68 279.57-11.65 279.57-12.6L279.57-12.6 279.57-14.75Q279.57-14.92 279.55-15.3 279.52-15.67 279.52-15.87L279.52-15.87Q279.52-16.7 279.62-18.55L279.62-18.55 279.62-16.7Q279.28-15.26 278.3-12.3 277.32-9.35 276.98-7.91L276.98-7.91 275.52-1.66Q275.13-0.98 273.08-0.98L273.08-0.98Q272.07-0.98 270.48-1.03 268.88-1.07 268.05-1.07L268.05-1.07Q267.8-1.07 267.22-1.05 266.63-1.03 266.48-1.03L266.48-1.03Q265.7-1.03 265.36-1.22 265.02-1.42 264.87-2L264.87-2Q262.58-12.18 261.7-16.41L261.7-16.41 260.82-20.61Q260.48-13.5 260.48-5.57L260.48-5.57 260.48-1.27 248.95-1.27Q248.95-1.42 249.03-1.9 249.1-2.39 249.1-2.44L249.1-2.44Q248.91-7.13 248.91-14.01L248.91-14.01Q248.91-16.09 248.88-19.54 248.86-23 248.86-24.32L248.86-24.32 248.86-32.96Q248.86-33.28 248.95-33.44 249.05-33.59 249.44-33.89L249.44-33.89 251.69-33.89Q252.91-33.89 253.45-33.94L253.45-33.94Q255.91-33.94 259.44-33.72 262.97-33.5 263.85-33.5L263.85-33.5ZM279.62-18.75L279.62-18.7 279.62-18.75ZM337.23-33.11L337.23-11.72Q337.23-9.57 336.38-7.7 335.52-5.83 334.13-4.54 332.74-3.25 330.96-2.31 329.17-1.37 327.31-0.93 325.44-0.49 323.66-0.49L323.66-0.49 322.88-0.49Q322.68-0.49 322.29-0.46 321.9-0.44 321.7-0.44L321.7-0.44Q315.01-0.44 311.6-4.1L311.6-4.1 311.6-4.05Q308.91-6.96 308.91-10.84L308.91-10.84 308.91-11.72Q308.91-12.28 309.03-12.54 309.15-12.79 309.59-12.79L309.59-12.79 311.35-12.79Q312.69-12.79 315.38-12.84 318.07-12.89 319.41-12.89L319.41-12.89Q320.26-12.89 320.6-12.45 320.95-12.01 320.92-11.47 320.9-10.94 321.13-10.5 321.36-10.06 322-10.06L322-10.06Q322.53-10.06 322.81-10.4 323.1-10.74 323.16-11.12 323.22-11.5 323.24-12.12 323.27-12.74 323.31-12.99L323.31-12.99 323.31-14.6Q323.31-16.8 323.36-21.22 323.41-25.63 323.41-27.93L323.41-27.93 323.41-29.49Q323.41-29.76 323.39-30.22 323.36-30.69 323.36-30.96L323.36-30.96 323.36-32.42Q323.36-33.01 323.51-33.29 323.66-33.57 324.14-33.79L324.14-33.79 335.62-33.79Q337.06-33.79 337.23-33.11L337.23-33.11ZM323.46-12.94L323.46-13.09Q323.31-13.04 323.36-12.94L323.36-12.94 323.46-12.94ZM339.96-16.21L339.96-17.68 339.91-18.21Q340.38-22.19 340.79-23.75L340.79-23.75Q341.74-27.42 344.21-29.88L344.21-29.88 344.8-30.47Q345.97-31.84 348.36-32.81L348.36-32.81 349.29-32.81Q351.68-33.81 357.15-34.67L357.15-34.67Q358.52-34.67 360.02-34.46 361.52-34.25 363.35-33.78 365.18-33.3 366.88-32.26 368.58-31.23 369.7-29.79L369.7-29.79 369.7-29.1Q373.7-24.1 373.7-17.87L373.7-17.87Q373.7-10.86 370.48-6.45L370.48-6.45 369.5-5.22Q368.38-3.83 366.71-2.83 365.04-1.83 363.16-1.31 361.28-0.78 359.56-0.56 357.83-0.34 356.12-0.34L356.12-0.34Q353.61-0.34 351.33-0.94 349.04-1.54 347.06-2.81 345.07-4.08 343.55-5.93 342.04-7.79 341.1-10.41 340.16-13.04 339.96-16.21L339.96-16.21ZM353.39-18.55L353.39-17.48Q353.39-8.89 356.66-8.89L356.66-8.89Q357.57-8.89 358.24-9.23 358.91-9.57 359.32-10.28 359.74-10.99 360.01-11.72 360.28-12.45 360.39-13.55 360.49-14.65 360.53-15.48 360.57-16.31 360.57-17.48L360.57-17.48 360.57-18.36Q360.57-19.63 360.42-20.8 360.28-21.97 359.92-23.16 359.57-24.34 358.83-25.06 358.1-25.78 357.05-25.78L357.05-25.78Q353.39-25.78 353.39-18.55L353.39-18.55ZM402.85-18.26L402.85-18.26Q404.1-18.26 405.15-17.48 406.2-16.7 406.83-15.52 407.47-14.33 407.82-13.05 408.17-11.77 408.17-10.64L408.17-10.64Q408.08-7.67 406.48-5.46 404.88-3.25 402.22-2.29L402.22-2.29 400.17-1.07 377.12-1.07 377.12-33.89 395.67-33.89Q401.19-33.89 404.41-31.54L404.41-31.54Q405.83-30.62 406.56-28.86 407.29-27.1 407.29-25.15L407.29-25.15Q407.29-22.66 406.21-21.14 405.12-19.63 402.85-18.26ZM390.2-15.14L390.2-15.14 389.23-9.06Q389.23-8.96 389.57-8.83 389.91-8.69 390.16-8.64L390.16-8.64 392.06-8.64Q393.65-8.76 394.61-9.44 395.58-10.11 395.58-11.67L395.58-11.67Q395.58-12.23 395.45-12.7 395.33-13.16 395.15-13.5 394.97-13.84 394.65-14.11 394.33-14.38 394.05-14.55 393.77-14.72 393.3-14.83 392.84-14.94 392.54-15 392.23-15.06 391.73-15.1 391.23-15.14 390.96-15.14 390.69-15.14 390.2-15.14ZM389.72-25.88L389.72-25.88Q389.91-24.78 389.91-23.34L389.91-23.34 389.91-22.85Q389.91-22.78 389.89-22.61 389.86-22.44 389.86-22.36L389.86-22.36Q389.86-22.27 389.89-21.94 389.91-21.61 389.91-21.39L389.91-21.39 389.91-20.61Q389.91-20.34 390.11-20.26L390.11-20.26Q390.74-20.26 391.11-20.29 391.47-20.31 392.17-20.39 392.87-20.46 393.3-20.68 393.74-20.9 394.21-21.25 394.67-21.61 394.9-22.22 395.14-22.83 395.14-23.63L395.14-23.63Q395.14-24.73 394.4-25.42 393.67-26.1 392.74-26.31 391.82-26.51 390.64-26.51L390.64-26.51Q390.55-26.46 390.11-26.46L390.11-26.46 390.11-26.51Q389.72-26.37 389.72-25.88ZM458.07-32.57L458.07-32.57 458.07-2.54Q458.07-2.03 458.03-1.72 458-1.42 457.83-1.15 457.66-0.88 457.34-0.88L457.34-0.88 444.89-0.88 444.89-1.42Q444.84-1.46 444.51-1.64 444.18-1.81 444.11-1.95L444.11-1.95 444.11-11.82Q444.11-12.35 444.02-12.43 443.93-12.5 443.32-12.5L443.32-12.5 441.66-12.5Q441.08-12.5 440.3-12.4L440.3-12.4 440.3-1.86Q440.2-1.42 439.92-1.29 439.64-1.17 439.08-1.17L439.08-1.17 437.95-1.17Q436.81-1.17 434.35-1.12 431.9-1.07 430.63-1.07L430.63-1.07 427.41-1.07Q426.36-1.07 426.36-2.25L426.36-2.25 426.5-33.01Q426.5-33.13 426.58-33.22 426.65-33.3 426.87-33.46 427.09-33.62 427.11-33.64L427.11-33.64 440.25-33.64 440.25-23.14 444.5-23.14 444.5-33.89 456.95-33.89Q457.53-33.89 457.8-33.62 458.07-33.35 458.07-32.57ZM462.66-27.93L462.66-27.88Q462.56-28.37 462.56-30.66L462.56-30.66Q462.56-33.3 463.05-33.79L463.05-33.79 476.33-33.79 476.33-13.28Q476.33-10.11 478.19-10.11L478.19-10.11Q478.97-10.11 479.48-10.8 479.99-11.5 479.99-12.45L479.99-12.45 479.99-16.06Q480.14-26.76 480.14-26.86L480.14-26.86Q480.14-31.1 480.04-33.01L480.04-33.01Q480.04-33.69 480.72-33.98L480.72-33.98 494.3-33.98 494.3-30.18Q493.98-20.92 493.91-18.26L493.91-18.26 493.91-16.75Q493.91-16.46 493.88-15.97 493.86-15.48 493.86-15.28L493.86-15.28Q493.86-14.45 493.91-14.11L493.91-14.11 493.91-12.21Q493.91-8.81 493.22-7.32L493.22-7.32 493.22-7.23Q492.44-5.4 490.98-4.06 489.51-2.73 487.63-1.99 485.75-1.25 483.78-0.92 481.8-0.59 479.6-0.59L479.6-0.59Q478.92-0.59 478.58-0.73L478.58-0.73 477.99-0.73Q477.99-0.49 477.26-0.49L477.26-0.49 477.26-0.44Q476.72-0.42 474.13-0.68L474.13-0.68 473.01-0.68Q471.47-0.85 470.04-1.37 468.61-1.88 467.27-2.82 465.93-3.76 464.92-5.05 463.9-6.35 463.27-8.2 462.63-10.06 462.56-12.26L462.56-12.26Q462.58-13.53 462.57-15.77 462.56-18.02 462.58-19.86 462.61-21.7 462.71-23.44L462.71-23.44 462.71-24.12Q462.71-24.24 462.73-24.51 462.76-24.78 462.76-24.9L462.76-24.9Q462.76-25.27 462.71-26 462.66-26.73 462.66-27.1L462.66-27.1 462.66-27.93ZM522.23-33.59L530.58-33.59Q530.87-33.5 531.03-32.75 531.19-32.01 531.21-30.88 531.23-29.76 531.21-28.74 531.19-27.71 531.15-26.64 531.11-25.56 531.11-25.29L531.11-25.29Q531.06-24.32 531.06-22.56L531.06-22.56 531.06-19.97Q531.06-18.26 531.11-15.28 531.16-12.3 531.16-10.89L531.16-10.89 531.16-2Q531.06-1.17 529.79-1.17L529.79-1.17 516.12-1.17Q515.68-1.27 515-3.22L515-3.22Q514.54-4.52 513.45-7.47 512.36-10.42 511.58-12.66 510.8-14.89 510.17-16.99L510.17-16.99 510.17-17.14 510.17-16.99Q510.09-15.38 510.02-12.19 509.95-9.01 509.87-7.42L509.87-7.42 509.87-2.44Q509.87-1.71 509.7-1.43 509.53-1.15 508.8-0.98L508.8-0.98 498.74-0.98 497.67-2.05Q497.79-6.1 497.86-14.75 497.93-23.39 498.06-27.54L498.06-27.54 498.06-32.81Q498.3-33.69 498.64-33.69L498.64-33.69 498.64-33.59Q500.3-33.59 503.85-33.69 507.41-33.79 509.19-33.79L509.19-33.79 513.29-33.79Q513.31-33.79 513.36-33.76L513.36-33.76Q513.8-33.59 513.85-33.37L513.85-33.37 513.88-33.2Q514.75-30.83 515.66-28.3 516.56-25.76 517.81-22.16 519.05-18.55 519.54-17.19L519.54-17.19 519.54-20.8Q520.03-29.39 520.03-33.01L520.03-33.01Q520.03-33.4 520.57-33.5 521.1-33.59 522.23-33.59L522.23-33.59ZM533.5-24.71L533.5-24.71 533.5-33.5 561.92-33.5Q562.31-33.42 562.41-33.19 562.51-32.96 562.51-32.52L562.51-32.52 562.51-24.71Q562.46-24.12 561.82-24.12L561.82-24.12 554.89-24.12 554.89-1.66Q554.89-1.64 554.86-1.54 554.84-1.44 554.84-1.42 554.84-1.39 554.82-1.32 554.79-1.25 554.77-1.22 554.74-1.2 554.72-1.14 554.69-1.07 554.66-1.06 554.62-1.05 554.56-1.01 554.5-0.98 554.44-0.95 554.38-0.93 554.29-0.92 554.21-0.9 554.11-0.88L554.11-0.88 552.55-0.88Q549.42-0.88 549.42-1.07L549.42-1.07Q549.23-1.07 548.83-1.05 548.44-1.03 548.25-1.03L548.25-1.03 546.3-1.03Q545.73-1.03 544.7-1 543.66-0.98 543.07-0.98L543.07-0.98 541.71-0.98 540.73-1.66 540.73-6.93Q540.75-8.35 540.94-12.99 541.12-17.63 541.12-20.31L541.12-20.31 541.12-20.95Q541.12-21.14 541.14-21.56 541.17-21.97 541.17-22.17L541.17-22.17Q541.17-22.39 541.14-23.06 541.12-23.73 541.12-23.93L541.12-23.93 535.02-23.93Q534.48-23.93 533.99-24.11 533.5-24.29 533.5-24.71ZM564.36-1.81L564.36-31.54Q564.36-33.01 564.48-33.25L564.48-33.25Q564.7-33.59 565.19-33.59L565.19-33.59 565.78-33.59Q566.17-33.59 566.31-33.54L566.31-33.54 567.58-33.54Q570.05-33.54 575.04-33.67 580.03-33.79 582.52-33.79L582.52-33.79 589.02-33.79Q589.65-33.72 589.65-33.15L589.65-33.15 589.65-25Q589.63-24.85 589.57-24.74 589.51-24.63 589.47-24.6 589.43-24.56 589.24-24.43 589.04-24.29 588.97-24.22L588.97-24.22 577.64-24.22 577.64-21.19 578.71-21.19Q580.13-21.19 583.04-21.29 585.94-21.39 587.5-21.39L587.5-21.39Q588.19-21.39 588.43-21.12 588.68-20.85 588.68-20.36L588.68-20.36Q588.68-20.24 588.63-19.95 588.58-19.65 588.58-19.53L588.58-19.53 588.58-18.6Q588.58-18.51 588.6-18.2 588.63-17.9 588.63-17.68L588.63-17.68 588.63-16.99Q588.63-16.46 588.68-15.92 588.72-15.38 588.72-14.99L588.72-14.99 588.72-14.36Q588.6-14.06 588.53-13.96 588.46-13.87 588.29-13.87L588.29-13.87 588.29-13.92Q587.38-13.92 585.17-13.79 582.96-13.67 581.64-13.67L581.64-13.67 577.74-13.67 577.74-10.55Q577.93-10.55 578.32-10.52 578.71-10.5 578.91-10.5L578.91-10.5Q580.01-10.5 582.16-10.57 584.31-10.64 585.26-10.64L585.26-10.64 588.38-10.64Q589.65-10.64 589.99-10.35L589.99-10.35Q590.12-10.21 590.19-10.06L590.19-10.06 590.19-2.25Q590.19-1.73 589.99-1.46 589.8-1.2 589.26-1.17L589.26-1.17 565.09-1.17 564.36-1.81ZM593.02-0.98L593.02-33.59 597.56-33.59Q599.66-33.59 604.27-33.69 608.89-33.79 611.18-33.79L611.18-33.79Q613.16-33.79 614.88-33.57 616.6-33.35 618.28-32.76 619.95-32.18 621.13-31.27 622.32-30.37 623.05-28.89 623.78-27.42 623.78-25.49L623.78-25.49Q623.78-22.83 622.54-20.95 621.29-19.07 618.7-17.77L618.7-17.77Q619.73-17.33 620.48-16.63 621.24-15.92 621.64-15.41 622.05-14.89 622.43-13.68 622.8-12.48 622.88-12.1 622.95-11.72 623.19-10.23L623.19-10.23Q623.27-9.89 623.29-9.72L623.29-9.72Q623.39-8.74 624.12-6.14 624.85-3.54 624.85-2.15L624.85-2.15Q624.85-1.27 624.32-1.27L624.32-1.27Q622.85-1.27 619.89-1.25 616.92-1.22 615.48-1.22L615.48-1.22Q614.89-1.27 613.72-1.27L613.72-1.27 612.06-1.27Q611.57-1.42 611.11-2.78 610.65-4.15 610.45-5.86L610.45-5.86 609.91-10.21Q609.77-10.74 609.68-10.97 609.6-11.21 609.38-11.54 609.16-11.87 608.78-11.99 608.4-12.11 607.81-12.11L607.81-12.11 606.69-12.11 606.69-2.34Q606.69-2.27 606.69-2.11 606.69-1.95 606.69-1.89 606.69-1.83 606.69-1.71 606.69-1.59 606.67-1.53 606.64-1.46 606.62-1.37 606.59-1.27 606.56-1.23 606.52-1.2 606.46-1.14 606.4-1.07 606.31-1.05 606.23-1.03 606.12-1 606.01-0.98 605.86-0.98L605.86-0.98 593.02-0.98ZM606.84-20.7L606.84-20.7Q606.89-20.65 606.98-20.5 607.08-20.34 607.18-20.24 607.28-20.14 607.37-20.12L607.37-20.12Q608.11-20.12 608.84-20.28 609.57-20.43 610.34-20.8 611.11-21.17 611.59-21.92 612.06-22.68 612.06-23.73L612.06-23.73Q612.06-26.27 607.18-26.27L607.18-26.27Q606.69-26.15 606.69-25.88L606.69-25.88 606.69-24.95Q606.69-24.24 606.76-22.83 606.84-21.41 606.84-20.7ZM646.09-24.12L646.09-24.12Q645.43-24.12 645.02-24.32 644.6-24.51 644.36-24.8 644.12-25.1 643.81-25.39 643.5-25.68 642.85-25.88 642.19-26.07 641.16-26.07L641.16-26.07Q640.84-26.07 640.39-26.01 639.94-25.95 639.4-25.68 638.87-25.42 638.87-25L638.87-25Q638.87-24.54 639.32-24.21 639.77-23.88 640.34-23.74 640.92-23.61 641.64-23.43 642.36-23.24 642.65-23.1L642.65-23.1 646.24-22.22Q647.83-21.78 649.1-21.29 650.37-20.8 651.79-19.96 653.22-19.12 654.17-18.09 655.13-17.07 655.76-15.52 656.4-13.96 656.4-12.11L656.4-12.11Q656.4-9.86 655.81-8.11L655.81-8.11 655.81-8.15Q655.3-6.59 654.37-5.36 653.44-4.13 652.17-3.31 650.9-2.49 649.61-1.94 648.31-1.39 646.62-1.06 644.92-0.73 643.59-0.57 642.26-0.42 640.53-0.29L640.53-0.29Q632.84-0.68 630.22-2.73L630.22-2.73 630.22-3.03Q628-4.69 626.94-6.64 625.88-8.59 625.68-11.04L625.68-11.04Q625.68-11.62 626.22-11.62L626.22-11.62Q626.37-11.62 626.66-11.6 626.95-11.57 627.1-11.57L627.1-11.57 629.59-11.57Q629.93-11.62 630.57-11.62L630.57-11.62 631.2-11.62Q631.4-11.62 631.54-11.57L631.54-11.57Q632.96-11.62 636.38-11.62L636.38-11.62 637.5-11.62Q637.99-11.62 638.26-11.33 638.52-11.04 638.68-10.61 638.84-10.18 639.05-9.75 639.26-9.33 639.79-9.03 640.33-8.74 641.21-8.74L641.21-8.74Q642.16-8.74 642.93-9.24 643.7-9.74 643.7-10.69L643.7-10.69Q643.7-11.13 643.28-11.52 642.87-11.91 642.04-12.23 641.21-12.55 640.56-12.74 639.92-12.94 638.82-13.21 637.72-13.48 637.4-13.57L637.4-13.57 635.94-13.57Q630.64-15.14 628.31-17.54 625.98-19.95 625.98-23.63L625.98-23.63Q625.98-26.07 626.89-28.03 627.81-29.98 629.31-31.23 630.81-32.47 632.84-33.31 634.86-34.16 636.96-34.51 639.06-34.86 641.31-34.86L641.31-34.86Q645.29-34.86 648.69-33.53 652.1-32.2 653.86-30.08L653.86-30.08Q654.49-29.44 654.88-28.47 655.27-27.49 655.38-26.92 655.49-26.34 655.66-25L655.66-25 654.98-24.02 650.83-24.02Q650.15-24.02 648.56-24.07 646.97-24.12 646.09-24.12Z" opacity="1" transform="matrix(1,0,0,1,0,0)" fill="#000000" class="slogan-text-1" data-fill-palette-color="secondary" id="text-1"></path></svg></g></svg></g></svg></g></svg></g><g transform="matrix(1,0,0,1,406.04087656563377,0)"><svg viewBox="0 0 86.19197807992268 94.40342532865651" height="94.40342532865651" width="86.19197807992268"><g><svg xmlns="http://www.w3.org/2000/svg" xmlns:xlink="http://www.w3.org/1999/xlink" version="1.1" x="0" y="0" viewBox="10.684999999999999 6.509000000000004 79.417 86.98299999999999" enable-background="new 0 0 100 100" xml:space="preserve" height="94.40342532865651" width="86.19197807992268" class="icon-icon-0" data-fill-palette-color="accent" id="icon-0"><g fill="#a1daaf" data-fill-palette-color="accent"><path d="M89.102 61.742h-4c-0.553 0-1 0.447-1 1v13.875h-28.55c0.081-0.054 0.167-0.093 0.246-0.149H78.31c2.481 0 4.5-2.019 4.5-4.5s-2.019-4.5-4.5-4.5h-6.076l-6.204-11.475c-0.639-1.179-1.757-2.007-3.067-2.271-1.295-0.262-2.678 0.075-3.71 0.903l-9.135 7.341H38.81c-4.411 0-8 3.589-8 8 0 2.77 1.416 5.214 3.561 6.65H16.685V62.742c0-0.553-0.448-1-1-1h-4c-0.552 0-1 0.447-1 1v29.75c0 0.553 0.448 1 1 1h4c0.552 0 1-0.447 1-1v-9.833h67.417v9.833c0 0.553 0.447 1 1 1h4c0.553 0 1-0.447 1-1v-29.75C90.102 62.189 89.654 61.742 89.102 61.742zM32.81 69.967c0-3.309 2.691-6 6-6h11.673l0.403-0.021 9.618-7.76c0.574-0.461 1.335-0.647 2.062-0.502 0.729 0.146 1.35 0.606 1.704 1.261l6.772 12.523h7.268c1.379 0 2.5 1.121 2.5 2.5s-1.121 2.5-2.5 2.5H55.118l-0.272 0.214c-1.069 0.841-2.35 1.285-3.702 1.285H38.81C35.501 75.967 32.81 73.275 32.81 69.967zM14.685 91.492h-2v-27.75h2V91.492zM16.685 80.659v-2.042h67.417v2.042H16.685zM88.102 91.492h-2v-27.75h2V91.492z" fill="#000000" data-fill-palette-color="accent"></path><path d="M24.692 76.465c3.124 0 5.666-2.542 5.666-5.666s-2.542-5.666-5.666-5.666c-3.125 0-5.667 2.542-5.667 5.666S21.567 76.465 24.692 76.465zM24.692 67.133c2.021 0 3.666 1.645 3.666 3.666s-1.645 3.666-3.666 3.666c-2.022 0-3.667-1.645-3.667-3.666S22.67 67.133 24.692 67.133z" fill="#000000" data-fill-palette-color="accent"></path><path d="M57 68.679l0.171 0.789h8.186l-4.059-7.506-5.358 4.308 0.421 0.74C56.659 67.536 56.874 68.098 57 68.679zM60.681 65.024l1.32 2.443H58.74c-0.075-0.229-0.161-0.455-0.257-0.677L60.681 65.024z" fill="#000000" data-fill-palette-color="accent"></path><path d="M38.644 75.301H51.81c2.206 0 4-1.794 4-4s-1.794-4-4-4H38.644c-2.206 0-4 1.794-4 4S36.438 75.301 38.644 75.301zM38.644 69.301H51.81c1.103 0 2 0.897 2 2s-0.897 2-2 2H38.644c-1.103 0-2-0.897-2-2S37.541 69.301 38.644 69.301z" fill="#000000" data-fill-palette-color="accent"></path><path d="M21.692 62.826c1.471 0 2.667-1.196 2.667-2.667s-1.196-2.667-2.667-2.667-2.667 1.196-2.667 2.667S20.222 62.826 21.692 62.826zM21.692 59.492c0.368 0 0.667 0.299 0.667 0.667s-0.299 0.667-0.667 0.667-0.667-0.299-0.667-0.667S21.325 59.492 21.692 59.492z" fill="#000000" data-fill-palette-color="accent"></path><path d="M20.692 53.004c0 2.208 1.796 4.004 4.004 4.004s4.004-1.796 4.004-4.004c0-2.208-1.796-4.004-4.004-4.004S20.692 50.796 20.692 53.004zM26.7 53.004c0 1.104-0.899 2.004-2.004 2.004s-2.004-0.899-2.004-2.004S23.591 51 24.696 51 26.7 51.899 26.7 53.004z" fill="#000000" data-fill-palette-color="accent"></path><path d="M42.319 51.929c12.523 0 22.711-10.188 22.711-22.709 0-12.523-10.188-22.711-22.711-22.711-12.523 0-22.712 10.188-22.712 22.711C19.607 41.741 29.795 51.929 42.319 51.929zM42.319 8.508c11.42 0 20.711 9.291 20.711 20.711 0 11.419-9.291 20.709-20.711 20.709s-20.712-9.29-20.712-20.709C21.607 17.799 30.898 8.508 42.319 8.508z" fill="#000000" data-fill-palette-color="accent"></path><path d="M29.349 35.753c0.052 0 0.104-0.004 0.157-0.012l11.647-1.845-0.795 6.09c-0.042 0.319 0.073 0.64 0.309 0.86 0.187 0.175 0.432 0.27 0.683 0.27 0.065 0 0.13-0.006 0.195-0.02l4.251-0.848c0.363-0.072 0.656-0.338 0.762-0.692l2.061-6.843 11.22-1.777c0.369-0.059 0.675-0.318 0.793-0.672 0.117-0.354 0.028-0.745-0.232-1.013-3.137-3.225-6.717-3.616-6.867-3.631-0.09-0.01-0.18-0.006-0.268 0.009l-7.354 1.251-5.808-5.257c-0.226-0.205-0.532-0.294-0.832-0.246l-4.083 0.666c-0.337 0.055-0.623 0.278-0.757 0.592-0.135 0.313-0.101 0.674 0.091 0.957l3.181 4.685-3.595 0.612-4.488-3.405c-0.235-0.178-0.536-0.243-0.825-0.179l-4.063 0.917c-0.311 0.07-0.569 0.284-0.697 0.576-0.127 0.292-0.107 0.627 0.053 0.902l4.396 7.555C28.666 35.567 28.998 35.753 29.349 35.753zM44.816 38.404l-2.294 0.458 0.691-5.292 3.213-0.509L44.816 38.404zM37.057 23.766l2.062-0.336 4.284 3.878-3.532 0.602L37.057 23.766zM28.783 27.359l4.462 3.386c0.22 0.167 0.496 0.233 0.772 0.189l5.553-0.945c0.001 0 0.001 0 0.002 0l6.196-1.055c0 0 0 0 0.001 0l7.678-1.307c0.451 0.074 2.126 0.417 3.934 1.673l-9.69 1.535c-0.001 0-0.002 0-0.004 0l-5.524 0.875c-0.001 0-0.002 0.001-0.003 0.001L29.87 33.658l-3.366-5.785L28.783 27.359z" fill="#000000" data-fill-palette-color="accent"></path></g></svg></g></svg></g></svg></g><defs></defs></svg><rect width="395.52" height="75.85524296803922" fill="none" stroke="none" visibility="hidden"></rect></g></svg></g></svg>